<svg id="visual" viewBox="0 0 900 600" width="900" height="600" xmlns="http://www.w3.org/2000/svg" xmlns:xlink="http://www.w3.org/1999/xlink" version="1.1"><path d="M0 145L21.5 134.5C43 124 86 103 128.8 102.8C171.7 102.7 214.3 123.3 257.2 128.5C300 133.7 343 123.3 385.8 133C428.7 142.7 471.3 172.3 514.2 168C557 163.7 600 125.3 642.8 113C685.7 100.7 728.3 114.3 771.2 124.3C814 134.3 857 140.7 878.5 143.8L900 147L900 0L878.5 0C857 0 814 0 771.2 0C728.3 0 685.7 0 642.8 0C600 0 557 0 514.2 0C471.3 0 428.7 0 385.8 0C343 0 300 0 257.2 0C214.3 0 171.7 0 128.8 0C86 0 43 0 21.5 0L0 0Z" fill="#0066FF" stroke-linecap="round" stroke-linejoin="miter"></path></svg>